<svg width="137" height="47" viewBox="0 0 137 47" fill="none" xmlns="http://www.w3.org/2000/svg">
<path d="M11.9934 3.88672H3.95312V11.6621H11.9934V3.88672Z" fill="#FFB4A1"/>
<path d="M29.883 0H18.2916C17.0856 0 16.0806 0.971914 16.0806 2.13821V13.3476C16.0806 14.5139 17.0856 15.4858 18.2916 15.4858H29.883C31.0891 15.4858 32.0941 14.5139 32.0941 13.3476V2.13821C32.0941 0.971914 31.0891 0 29.883 0ZM28.074 11.663H20.0337V3.88766H28.074V11.663Z" fill="#FFB4A1"/>
<path d="M44.1545 3.88672H36.1143V11.6621H44.1545V3.88672Z" fill="#FFB4A1"/>
<path d="M13.8025 15.5498H2.21108C1.00504 15.5498 0 16.5217 0 17.6881V28.8979C0 30.0642 1.00504 31.0361 2.21108 31.0361H13.8025C15.0086 31.0361 16.0136 30.0642 16.0136 28.8979V17.6881C16.0136 16.5217 15.0086 15.5498 13.8025 15.5498ZM11.9935 27.2131H3.95315V19.4376H11.9935V27.2131Z" fill="#FFB4A1"/>
<path d="M28.074 19.4375H20.0337V27.2134H28.074V19.4375Z" fill="#FFB4A1"/>
<path d="M45.9636 15.5498H34.3722C33.1662 15.5498 32.1611 16.5217 32.1611 17.6881V28.8979C32.1611 30.0642 33.1662 31.0361 34.3722 31.0361H45.9636C47.1697 31.0361 48.1747 30.0642 48.1747 28.8979V17.6881C48.1747 16.5217 47.1697 15.5498 45.9636 15.5498ZM44.1545 27.2131H36.1143V19.4376H44.1545V27.2131Z" fill="#FFB4A1"/>
<path d="M29.883 31.1011H18.2916C17.0856 31.1011 16.0806 32.073 16.0806 33.2392V44.4483C16.0806 45.6145 17.0856 46.5864 18.2916 46.5864H29.883C31.0891 46.5864 32.0941 45.6145 32.0941 44.4483V33.2392C32.0941 32.073 31.0891 31.1011 29.883 31.1011ZM28.074 42.7637H20.0337V34.9886H28.074V42.7637Z" fill="#FFB4A1"/>
<path d="M11.9934 34.9893H3.95312V42.7642H11.9934V34.9893Z" fill="#FFB4A1"/>
<path d="M44.1545 34.9893H36.1143V42.7642H44.1545V34.9893Z" fill="#FFB4A1"/>
<path d="M64.2554 11.6636H73.4347C76.1818 11.6636 77.5889 12.8947 77.5889 15.2921V20.346C77.5889 21.9011 77.0528 22.873 75.9808 23.197C77.0528 23.521 77.5889 24.4281 77.5889 25.8536V31.2963C77.5889 33.7585 76.1818 34.9248 73.4347 34.9248H64.2554V11.6636ZM73.2337 20.67V15.8104C73.2337 15.4217 73.1667 15.1625 73.0327 15.0329C72.8987 14.9033 72.5637 14.8385 72.1617 14.8385H68.6775V21.7067H72.1617C72.5637 21.7067 72.8987 21.6419 73.0327 21.5123C73.1667 21.318 73.2337 21.0588 73.2337 20.67ZM73.2337 30.9075V25.7888C73.2337 25.4 73.1667 25.1408 73.0327 25.0112C72.8987 24.8817 72.5637 24.8169 72.1617 24.8169H68.6775V31.9443H72.1617C72.5637 31.9443 72.8987 31.8795 73.0327 31.7499C73.1667 31.5555 73.2337 31.2963 73.2337 30.9075Z" fill="#FFB4A1"/>
<path d="M90.9894 34.9888L90.0514 30.1293H84.7582L83.8871 34.9888H79.532L84.3562 11.6631H90.2524L95.3445 34.9888H90.9894ZM85.3612 26.9544H89.4483L87.3713 15.8099L85.3612 26.9544Z" fill="#FFB4A1"/>
<path d="M97.8235 11.6631H102.246V34.9888H97.8235V11.6631Z" fill="#FFB4A1"/>
<path d="M114.574 23.0668L120.068 34.9888H115.177L112.162 26.8248L109.08 34.9888H104.39L109.683 23.0668L104.658 11.6631H109.616L112.162 19.3735L114.708 11.6631H119.465L114.574 23.0668Z" fill="#FFB4A1"/>
<path d="M131.928 34.9888L130.99 30.1293H125.697L124.826 34.9888H120.403L125.228 11.6631H131.124L136.216 34.9888H131.928ZM126.3 26.9544H130.387L128.31 15.8099L126.3 26.9544Z" fill="#FFB4A1"/>
</svg>
